# xmcd
#
# Track frame offsets: 
#        150
#        12695
#        27776
#        37636
#        48073
#        60086
#        72336
#        85596
#        98017
#        111246
#        124509
#        135417
#        147699
#        161406
#        174071
#        185598
#        196198
#        208460
#        220335
#        234708
#        252768
#        272060
#
# Disc length: 3809 seconds
#
# Revision: 0
# Processed by: cddbd v1.5.2PL0 Copyright (c) Steve Scherf et al.
# Submitted via: ExactAudioCopy v0.99pb4
#
DISCID=2a0edf16
DTITLE=Otis Redding - The Collection
DYEAR=2006
DGENRE=Soul
TTITLE0=(Sittin' On) The Dock Of The Bay
TTITLE1=Try A Little Tenderness
TTITLE2=Respect
TTITLE3=Love Man
TTITLE4=Shake
TTITLE5=Mr Pitiful
TTITLE6=Satisfaction
TTITLE7=I Can't Turn You Loose
TTITLE8=I've Been Loving You Too Long (To Stop Now)
TTITLE9=My Girl
TTITLE10=Pain In My Heart
TTITLE11=You Left The Water Running
TTITLE12=Tramp
TTITLE13=It's Growing
TTITLE14=These Arms Of Mine
TTITLE15=Hard To Handle
TTITLE16=Fa-Fa-Fa-Fa-Fa (Sad Song)
TTITLE17=Security
TTITLE18=My Lover's Prayer
TTITLE19=Cigarettes and Coffee
TTITLE20=A Change Is Gonna Come
TTITLE21=Down In The Valley
EXTD=
EXTT0=
EXTT1=
EXTT2=
EXTT3=
EXTT4=
EXTT5=
EXTT6=
EXTT7=
EXTT8=
EXTT9=
EXTT10=
EXTT11=
EXTT12=
EXTT13=
EXTT14=
EXTT15=
EXTT16=
EXTT17=
EXTT18=
EXTT19=
EXTT20=
EXTT21=
PLAYORDER=
